<?xml version="1.0" encoding="UTF-8" standalone="no"?>
<!-- Created with Inkscape (http://www.inkscape.org/) -->

<svg
   version="1.1"
   id="svg2"
   width="3456"
   height="6144"
   viewBox="0 0 3456 6144"
   sodipodi:docname="letters.svg"
   inkscape:version="1.4 (86a8ad7, 2024-10-11)"
   xml:space="preserve"
   xmlns:inkscape="http://www.inkscape.org/namespaces/inkscape"
   xmlns:sodipodi="http://sodipodi.sourceforge.net/DTD/sodipodi-0.dtd"
   xmlns="http://www.w3.org/2000/svg"
   xmlns:svg="http://www.w3.org/2000/svg"><defs
     id="defs6" /><sodipodi:namedview
     id="namedview4"
     pagecolor="#ffffff"
     bordercolor="#666666"
     borderopacity="1.0"
     inkscape:showpageshadow="2"
     inkscape:pageopacity="0.0"
     inkscape:pagecheckerboard="0"
     inkscape:deskcolor="#d1d1d1"
     showgrid="false"
     inkscape:zoom="0.15364583"
     inkscape:cx="943.72883"
     inkscape:cy="2430.9153"
     inkscape:window-width="1920"
     inkscape:window-height="1009"
     inkscape:window-x="-8"
     inkscape:window-y="-8"
     inkscape:window-maximized="1"
     inkscape:current-layer="g8" /><g
     inkscape:groupmode="layer"
     inkscape:label="Image"
     id="g8"><path
       style="fill:#000000;stroke-width:1.33333"
       d="m 2359.6537,2577.2757 c 0,-1.1432 0.6,-2.0787 1.3333,-2.0787 0.7333,0 1.3333,0.5646 1.3333,1.2547 0,0.69 -0.6,1.6255 -1.3333,2.0787 -0.7333,0.4532 -1.3333,-0.112 -1.3333,-1.2547 z"
       id="path64" /><path
       style="fill:#3cdb4e;fill-opacity:1;stroke:#000000;stroke-width:58.874;stroke-linecap:round;stroke-dasharray:none;stroke-opacity:1;paint-order:stroke fill markers"
       d="m 2832.2309,1923.6835 c -1.99,1.2928 -12.8425,2.6479 -24.1166,3.0112 -11.2741,0.3633 -26.4609,1.3652 -33.7485,2.2268 -14.6745,1.7346 -16.8701,-2.756 -41.6844,-85.2563 -19.0506,-63.3371 -31.7304,-75.2398 -79.0163,-74.1734 -18.8347,0.4248 -42.1144,-1.3932 -51.7329,-4.0402 -24.4373,-6.725 -40.5124,-1.4092 -43.2704,14.309 -1.2198,6.9514 -4.3631,18.9019 -6.985,26.5566 -2.622,7.6548 -12.3227,36.8747 -21.557,64.9333 -9.2343,28.0586 -20.2767,53.7617 -24.5386,57.118 -9.2607,7.2932 -77.3901,7.6428 -76.0137,0.3901 3.0333,-15.9844 29.2137,-85.9615 46.8961,-125.3483 11.4828,-25.5776 25.2735,-56.9612 30.6461,-69.7416 5.3726,-12.7805 17.2289,-38.9418 26.3474,-58.1362 47.5388,-100.0703 63.6038,-135.0204 63.5514,-138.2596 -0.031,-1.9661 4.4598,-9.478 9.9812,-16.6929 9.686,-12.6571 11.5561,-13.1593 53.2073,-14.2885 31.335,-0.8493 44.2577,0.5004 47.1412,4.9236 3.4505,5.2927 15.6978,40.2132 41.3964,118.0319 3.7347,11.3091 10.5545,37.6625 15.1552,58.563 4.6008,20.9007 13.4399,51.8865 19.6424,68.8575 6.2024,16.9709 15.364,48.2594 20.3587,69.5299 4.9948,21.2706 12.7666,45.8409 17.2705,54.6008 10.6687,20.7492 15.6194,39.9295 11.0695,42.8853 z M 2712.251,1650.785 c -6.6614,-17.5727 -15.5412,-39.3187 -19.8232,-48.3243 -10.14,-21.3256 -13.5473,-32.5626 -38.881,-34.8409 -25.6602,-2.3077 -23.1666,10.2164 -36.7847,29.0634 -7.0662,9.7793 -16.1469,31.5444 -36.6544,74.417 -8.7771,18.3494 -16.6409,25.0205 -15.333,34.5271 0,0 -1.5764,10.1357 1.7736,12.8908 11.3411,9.3274 48.8607,3.976 48.8607,3.976 24.1887,-1.3929 51.2757,-7.0727 66.1594,-4.667 23.3109,3.7678 28.2024,3.2937 35.2943,-3.4213 10.9839,-10.4004 9.9013,-25.3365 -4.6117,-63.6208 z"
       id="path2"
       sodipodi:nodetypes="sssssssssssssccssssssssssssssssssss" /><path
       style="fill:#d04242;fill-opacity:1;stroke:#000000;stroke-width:58.874;stroke-dasharray:none;stroke-opacity:1;paint-order:stroke fill markers"
       d="m 2744.043,2318.8752 c -3.2155,9.3532 -11.04,23.8151 -17.3877,32.1373 -11.771,15.4326 -54.4013,40.5145 -79.2538,46.6297 -19.1905,4.7219 -25.3378,10.9478 -25.3378,25.6618 0,18.0458 7.0704,21.7448 45.5658,23.8387 33.5294,1.8238 34.3365,2.1639 51.7746,21.8142 16.7733,18.9011 17.7143,21.587 17.7143,50.5609 0,37.1269 -5.1958,45.6915 -42.2476,69.6392 -45.746,29.5671 -83.867,41.675 -134.3668,42.6774 -30.7209,0.6098 -45.5754,-0.9121 -49.7897,-5.101 -9.2999,-9.2438 -10.2719,-104.6598 -1.7746,-174.1939 4.0006,-32.7365 7.2641,-81.1827 7.2524,-107.6583 -0.012,-27.4941 3.3291,-64.3033 7.7914,-85.8342 l 7.8127,-37.6968 30.1767,-3.6338 c 16.5971,-1.9986 33.2831,-3.2856 37.0799,-2.86 3.7968,0.4256 19.3292,1.8993 34.5164,3.2748 62.6411,5.6735 95.7059,25.3109 109.7791,65.1987 5.4099,15.3332 5.53,21.4802 0.6947,35.5453 z m -57.5401,176.8189 c -12.4212,-15.791 -44.7572,-26.0315 -93.0586,-29.471 -39.3102,-2.7992 -40.2076,-2.6332 -44.1935,8.1766 -2.2378,6.0686 -3.131,18.634 -1.9849,27.9232 1.1461,9.2892 -0.2383,27.7165 -3.0763,40.9497 -4.4569,20.7821 -4.109,25.2217 2.5539,32.5841 9.7945,10.8227 19.6062,10.7006 69.1917,-0.8612 66.8676,-15.5915 95.4322,-47.6913 70.5677,-79.3014 z m -4.7843,-213.0376 c -13.4515,-21.765 -42.0888,-34.2509 -78.3661,-34.1678 -38.6728,0.089 -53.1043,7.264 -51.1984,25.4558 0.7833,7.4772 1.1732,28.2499 0.8664,46.1615 -0.7317,42.7159 2.5282,45.4586 50.1511,42.1944 48.419,-3.3187 76.7389,-15.7981 82.6833,-36.4348 6.5202,-22.636 6.143,-26.5769 -4.1363,-43.2091 z"
       id="path3" /><path
       style="fill:#ecdb33;fill-opacity:1;stroke:#000000;stroke-width:58.874;stroke-dasharray:none;stroke-opacity:1;paint-order:stroke fill markers"
       d="m 2756.092,3573.2661 c -16.6866,39.0172 -27.1813,57.6742 -81.7118,145.2639 -23.9574,38.4815 -28.2811,59.3929 -20.4978,99.1355 16.6583,85.0606 28.3543,139.7093 32.6872,152.7305 6.1184,18.3868 -1.953,24.1053 -47.0342,33.3241 l -34.1625,6.9859 -1.9304,-16.3699 c -1.0617,-9.0035 -0.595,-21.6895 1.037,-28.191 1.632,-6.5015 1.9369,-41.6665 0.6775,-78.1443 -2.7286,-79.0309 -9.8494,-101.0513 -44.3261,-137.0735 -11.8331,-12.3635 -27.0388,-32.0461 -33.7902,-43.7389 -6.7516,-11.6929 -19.2918,-31.2795 -27.8674,-43.5257 -60.0375,-85.7356 -59.4413,-83.3128 -22.098,-89.7867 l 22.0617,-3.8247 23.9514,52.0637 c 33.6311,73.105 76.1569,120.3088 99.0563,109.9528 4.9824,-2.2533 15.5461,-21.6746 25.1974,-46.3255 9.1401,-23.3453 28.0452,-66.7301 42.0112,-96.4109 23.9506,-50.8999 26.3851,-54.2585 42.8617,-59.13 20.5701,-6.0817 38.5297,-4.9239 38.7885,2.5006 0.1009,2.8977 -6.6093,21.1516 -14.9115,40.5641 z"
       id="path5" /><path
       style="fill:#40ccd0;fill-opacity:1;stroke:#000000;stroke-width:58.874;stroke-dasharray:none;stroke-opacity:1;paint-order:stroke fill markers"
       d="m 2815.134,644.85233 c -9.386,13.1753 -30.593,49.392 -47.1265,80.4815 -16.5336,31.08951 -33.9632,61.31781 -38.7326,67.17371 -13.6039,16.7035 -9.6094,40.5956 14.6418,87.57719 11.7801,22.8213 25.8454,51.49955 31.2564,63.72955 5.411,12.2299 22.4434,41.0042 37.8498,63.94262 15.4063,22.9386 28.1353,44.0225 28.2867,46.8532 0.1786,3.3394 -11.7865,5.7917 -34.0739,6.9836 -33.9971,1.8182 -34.4351,1.6905 -42.7432,-12.4672 -4.6168,-7.8673 -11.3939,-16.9993 -15.0601,-20.2934 -11.3757,-10.2207 -17.8528,-23.8065 -28.2483,-59.25102 -14.0656,-47.95875 -36.9188,-109.17564 -43.3566,-116.13964 -8.7069,-9.4186 -31.1631,-5.6678 -42.657,7.1248 -5.7061,6.35069 -12.3159,20.70339 -14.6886,31.89459 -4.2201,19.9058 -9.5979,31.2696 -53.1018,112.20947 -29.4413,54.7762 -27.3003,52.7749 -58.2258,54.4288 -14.8561,0.7945 -27.0629,0.4744 -27.1263,-0.7112 -0.063,-1.1856 9.3778,-18.5482 20.9804,-38.5835 11.6026,-20.03522 20.9857,-38.48422 20.8513,-40.99762 -0.4393,-8.2143 58.17,-137.56994 68.7224,-151.67584 12.6994,-16.9761 10.9256,-22.6958 -20.5769,-66.3541 -13.2082,-18.3047 -31.781,-47.38371 -41.273,-64.61981 -9.492,-17.2361 -21.1697,-36.6404 -25.9506,-43.1208 -4.7809,-6.4804 -7.0799,-12.8192 -5.1088,-14.0862 6.1094,-3.9272 53.8017,-6.3718 58.877,-3.0179 8.4262,5.5683 31.828,35.4768 32.1266,41.0592 0.515,9.63 36.2581,66.02461 52.6255,83.03151 14.8392,15.4189 16.7937,16.1432 27.9083,10.3433 6.5734,-3.4301 13.0589,-9.9432 14.4122,-14.4734 1.3533,-4.5303 20.2892,-38.83681 42.08,-76.23661 l 39.6195,-67.9998 30.5283,-0.2744 c 16.7905,-0.1509 31.388,1.9281 32.4388,4.62 1.0508,2.6919 -5.7689,15.6742 -15.155,28.8494 z"
       id="path4" /></g></svg>
